<svg width="42" height="40" viewBox="0 0 42 40" fill="none" xmlns="http://www.w3.org/2000/svg">
<g id="Ativo 12coren" clip-path="url(#clip0_779_1643)">
<g id="Camada 3">
<g id="Group">
<path id="Vector" d="M20.7245 34.9361C11.5316 34.9361 5.92199 27.6894 5.92199 19.8998C5.92199 13.0815 10.3066 6.57406 17.6727 5.15284C17.7251 5.14303 17.7627 5.09724 17.7627 5.0449V0.112368C17.7627 0.0453138 17.7022 -0.0086563 17.6351 0.00115644C6.73972 1.41583 0 10.262 0 19.8981C0 30.4157 8.02519 39.9995 20.7245 39.9995C26.9458 39.9995 32.0435 37.6968 35.6268 34.1135C35.6759 34.0644 35.6693 33.981 35.6121 33.9418L31.2225 30.8671C31.1784 30.8361 31.1195 30.841 31.0819 30.8786C28.5665 33.3547 25.0536 34.9345 20.7261 34.9345L20.7245 34.9361Z" fill="#545454"/>
<path id="Vector_2" d="M23.6855 0.112713V5.03871C23.6855 5.09268 23.7232 5.13684 23.7755 5.14665C31.1939 6.55968 35.5263 13.0737 35.5263 19.8968C35.5263 21.933 35.1452 23.9315 34.4207 25.773C34.4027 25.8205 34.4174 25.8744 34.4599 25.9039L39.0915 29.147C39.1472 29.1862 39.2257 29.1666 39.2567 29.1061C40.6845 26.2947 41.4482 23.1399 41.4482 19.8968C41.4482 10.2624 34.7085 1.41617 23.8131 -0.000133087C23.7461 -0.00831037 23.6855 0.0440242 23.6855 0.111078V0.112713Z" fill="#545454"/>
</g>
</g>
</g>
<defs>
<clipPath id="clip0_779_1643">
<rect width="41.449" height="40" fill="white"/>
</clipPath>
</defs>
</svg>
