<svg width="24" height="24" viewBox="0 0 24 24" fill="none" xmlns="http://www.w3.org/2000/svg">
<mask id="mask0_418_7647" style="mask-type:alpha" maskUnits="userSpaceOnUse" x="0" y="0" width="24" height="24">
<rect width="24" height="24" fill="#545454"/>
</mask>
<g mask="url(#mask0_418_7647)">
<path d="M11.0008 21.9498V20.9498C8.91745 20.7165 7.12995 19.854 5.63828 18.3623C4.14661 16.8706 3.28411 15.0831 3.05078 12.9998H2.05078C1.76745 12.9998 1.52995 12.904 1.33828 12.7123C1.14661 12.5206 1.05078 12.2831 1.05078 11.9998C1.05078 11.7165 1.14661 11.479 1.33828 11.2873C1.52995 11.0956 1.76745 10.9998 2.05078 10.9998H3.05078C3.28411 8.91647 4.14661 7.12897 5.63828 5.6373C7.12995 4.14564 8.91745 3.28314 11.0008 3.0498V2.0498C11.0008 1.76647 11.0966 1.52897 11.2883 1.3373C11.4799 1.14564 11.7174 1.0498 12.0008 1.0498C12.2841 1.0498 12.5216 1.14564 12.7133 1.3373C12.9049 1.52897 13.0008 1.76647 13.0008 2.0498V3.0498C15.0841 3.28314 16.8716 4.14564 18.3633 5.6373C19.8549 7.12897 20.7174 8.91647 20.9508 10.9998H21.9508C22.2341 10.9998 22.4716 11.0956 22.6633 11.2873C22.8549 11.479 22.9508 11.7165 22.9508 11.9998C22.9508 12.2831 22.8549 12.5206 22.6633 12.7123C22.4716 12.904 22.2341 12.9998 21.9508 12.9998H20.9508C20.7174 15.0831 19.8549 16.8706 18.3633 18.3623C16.8716 19.854 15.0841 20.7165 13.0008 20.9498V21.9498C13.0008 22.2331 12.9049 22.4706 12.7133 22.6623C12.5216 22.854 12.2841 22.9498 12.0008 22.9498C11.7174 22.9498 11.4799 22.854 11.2883 22.6623C11.0966 22.4706 11.0008 22.2331 11.0008 21.9498ZM12.0008 18.9998C13.9341 18.9998 15.5841 18.3165 16.9508 16.9498C18.3174 15.5831 19.0008 13.9331 19.0008 11.9998C19.0008 10.0665 18.3174 8.41647 16.9508 7.0498C15.5841 5.68314 13.9341 4.9998 12.0008 4.9998C10.0674 4.9998 8.41745 5.68314 7.05078 7.0498C5.68411 8.41647 5.00078 10.0665 5.00078 11.9998C5.00078 13.9331 5.68411 15.5831 7.05078 16.9498C8.41745 18.3165 10.0674 18.9998 12.0008 18.9998ZM12.0008 15.9998C10.9008 15.9998 9.95912 15.6081 9.17578 14.8248C8.39245 14.0415 8.00078 13.0998 8.00078 11.9998C8.00078 10.8998 8.39245 9.95814 9.17578 9.1748C9.95912 8.39147 10.9008 7.9998 12.0008 7.9998C13.1008 7.9998 14.0424 8.39147 14.8258 9.1748C15.6091 9.95814 16.0008 10.8998 16.0008 11.9998C16.0008 13.0998 15.6091 14.0415 14.8258 14.8248C14.0424 15.6081 13.1008 15.9998 12.0008 15.9998Z" fill="#545454"/>
</g>
</svg>
