<svg width="24" height="24" viewBox="0 0 24 24" fill="none" xmlns="http://www.w3.org/2000/svg">
<mask id="mask0_627_9536" style="mask-type:alpha" maskUnits="userSpaceOnUse" x="0" y="0" width="24" height="24">
<rect width="24" height="24" fill="#D9D9D9"/>
</mask>
<g mask="url(#mask0_627_9536)">
<path d="M7.85039 12.9995L10.7004 15.8495C10.9004 16.0495 10.9962 16.2829 10.9879 16.5495C10.9796 16.8162 10.8837 17.0495 10.7004 17.2495C10.5004 17.4495 10.2629 17.5537 9.98789 17.562C9.71289 17.5704 9.47539 17.4745 9.27539 17.2745L4.70039 12.6995C4.50039 12.4995 4.40039 12.2662 4.40039 11.9995C4.40039 11.7329 4.50039 11.4995 4.70039 11.2995L9.27539 6.72452C9.47539 6.52452 9.71289 6.42869 9.98789 6.43702C10.2629 6.44536 10.5004 6.54952 10.7004 6.74952C10.8837 6.94952 10.9796 7.18286 10.9879 7.44952C10.9962 7.71619 10.9004 7.94952 10.7004 8.14952L7.85039 10.9995H19.0004C19.2837 10.9995 19.5212 11.0954 19.7129 11.287C19.9046 11.4787 20.0004 11.7162 20.0004 11.9995C20.0004 12.2829 19.9046 12.5204 19.7129 12.712C19.5212 12.9037 19.2837 12.9995 19.0004 12.9995H7.85039Z" fill="#323232"/>
</g>
</svg>
