<svg width="32" height="32" viewBox="0 0 32 32" fill="none" xmlns="http://www.w3.org/2000/svg">
<mask id="mask0_649_13566" style="mask-type:alpha" maskUnits="userSpaceOnUse" x="0" y="0" width="32" height="32">
<rect width="32" height="32" fill="#D9D9D9"/>
</mask>
<g mask="url(#mask0_649_13566)">
<path d="M6.66667 27.9997C5.93333 27.9997 5.30556 27.7386 4.78333 27.2163C4.26111 26.6941 4 26.0663 4 25.333V6.66634C4 5.93301 4.26111 5.30523 4.78333 4.78301C5.30556 4.26079 5.93333 3.99967 6.66667 3.99967H12.2667C12.5556 3.19967 13.0389 2.55523 13.7167 2.06634C14.3944 1.57745 15.1556 1.33301 16 1.33301C16.8444 1.33301 17.6056 1.57745 18.2833 2.06634C18.9611 2.55523 19.4444 3.19967 19.7333 3.99967H25.3333C26.0667 3.99967 26.6944 4.26079 27.2167 4.78301C27.7389 5.30523 28 5.93301 28 6.66634V25.333C28 26.0663 27.7389 26.6941 27.2167 27.2163C26.6944 27.7386 26.0667 27.9997 25.3333 27.9997H6.66667ZM10.6667 22.6663H17.3333C17.7111 22.6663 18.0278 22.5386 18.2833 22.283C18.5389 22.0275 18.6667 21.7108 18.6667 21.333C18.6667 20.9552 18.5389 20.6386 18.2833 20.383C18.0278 20.1275 17.7111 19.9997 17.3333 19.9997H10.6667C10.2889 19.9997 9.97222 20.1275 9.71667 20.383C9.46111 20.6386 9.33333 20.9552 9.33333 21.333C9.33333 21.7108 9.46111 22.0275 9.71667 22.283C9.97222 22.5386 10.2889 22.6663 10.6667 22.6663ZM10.6667 17.333H21.3333C21.7111 17.333 22.0278 17.2052 22.2833 16.9497C22.5389 16.6941 22.6667 16.3775 22.6667 15.9997C22.6667 15.6219 22.5389 15.3052 22.2833 15.0497C22.0278 14.7941 21.7111 14.6663 21.3333 14.6663H10.6667C10.2889 14.6663 9.97222 14.7941 9.71667 15.0497C9.46111 15.3052 9.33333 15.6219 9.33333 15.9997C9.33333 16.3775 9.46111 16.6941 9.71667 16.9497C9.97222 17.2052 10.2889 17.333 10.6667 17.333ZM10.6667 11.9997H21.3333C21.7111 11.9997 22.0278 11.8719 22.2833 11.6163C22.5389 11.3608 22.6667 11.0441 22.6667 10.6663C22.6667 10.2886 22.5389 9.9719 22.2833 9.71634C22.0278 9.46078 21.7111 9.33301 21.3333 9.33301H10.6667C10.2889 9.33301 9.97222 9.46078 9.71667 9.71634C9.46111 9.9719 9.33333 10.2886 9.33333 10.6663C9.33333 11.0441 9.46111 11.3608 9.71667 11.6163C9.97222 11.8719 10.2889 11.9997 10.6667 11.9997ZM16 5.66634C16.2889 5.66634 16.5278 5.5719 16.7167 5.38301C16.9056 5.19412 17 4.95523 17 4.66634C17 4.37745 16.9056 4.13856 16.7167 3.94967C16.5278 3.76079 16.2889 3.66634 16 3.66634C15.7111 3.66634 15.4722 3.76079 15.2833 3.94967C15.0944 4.13856 15 4.37745 15 4.66634C15 4.95523 15.0944 5.19412 15.2833 5.38301C15.4722 5.5719 15.7111 5.66634 16 5.66634Z" fill="#545454"/>
</g>
</svg>
