<svg width="24" height="24" viewBox="0 0 24 24" fill="none" xmlns="http://www.w3.org/2000/svg">
<mask id="mask0_418_7649" style="mask-type:alpha" maskUnits="userSpaceOnUse" x="0" y="0" width="24" height="24">
<rect width="24" height="24" fill="#D9D9D9"/>
</mask>
<g mask="url(#mask0_418_7649)">
<path d="M5.02545 21C4.47545 21 4.00462 20.8042 3.61295 20.4125C3.22129 20.0208 3.02545 19.55 3.02545 19V11.05C2.64212 10.7 2.34629 10.25 2.13795 9.7C1.92962 9.15 1.92545 8.55 2.12545 7.9L3.17545 4.5C3.30879 4.06667 3.54629 3.70833 3.88795 3.425C4.22962 3.14167 4.62545 3 5.07545 3H18.9755C19.4255 3 19.8171 3.1375 20.1505 3.4125C20.4838 3.6875 20.7255 4.05 20.8755 4.5L21.9255 7.9C22.1255 8.55 22.1213 9.14167 21.913 9.675C21.7046 10.2083 21.4088 10.6667 21.0255 11.05V19C21.0255 19.55 20.8296 20.0208 20.438 20.4125C20.0463 20.8042 19.5755 21 19.0255 21H5.02545ZM14.2255 10C14.6755 10 15.0171 9.84583 15.2505 9.5375C15.4838 9.22917 15.5755 8.88333 15.5255 8.5L14.9755 5H13.0255V8.7C13.0255 9.05 13.1421 9.35417 13.3755 9.6125C13.6088 9.87083 13.8921 10 14.2255 10ZM9.72545 10C10.1088 10 10.4213 9.87083 10.663 9.6125C10.9046 9.35417 11.0255 9.05 11.0255 8.7V5H9.07545L8.52545 8.5C8.45879 8.9 8.54629 9.25 8.78795 9.55C9.02962 9.85 9.34212 10 9.72545 10ZM5.27545 10C5.57545 10 5.83795 9.89167 6.06295 9.675C6.28795 9.45833 6.42545 9.18333 6.47545 8.85L7.02545 5H5.07545L4.07545 8.35C3.97545 8.68333 4.02962 9.04167 4.23795 9.425C4.44629 9.80833 4.79212 10 5.27545 10ZM18.7755 10C19.2588 10 19.6088 9.80833 19.8255 9.425C20.0421 9.04167 20.0921 8.68333 19.9755 8.35L18.9255 5H17.0255L17.5755 8.85C17.6255 9.18333 17.763 9.45833 17.988 9.675C18.213 9.89167 18.4755 10 18.7755 10Z" fill="#545454"/>
</g>
</svg>
