<svg width="24" height="24" viewBox="0 0 24 24" fill="none" xmlns="http://www.w3.org/2000/svg">
<mask id="mask0_779_8731" style="mask-type:alpha" maskUnits="userSpaceOnUse" x="0" y="0" width="24" height="24">
<rect y="24" width="24" height="24" transform="rotate(-90 0 24)" fill="#D9D9D9"/>
</mask>
<g mask="url(#mask0_779_8731)">
<path d="M17.4008 12.0002L21.3008 15.9002C21.4841 16.0835 21.5758 16.3169 21.5758 16.6002C21.5758 16.8835 21.4841 17.1169 21.3008 17.3002C21.1174 17.4835 20.8841 17.5752 20.6008 17.5752C20.3174 17.5752 20.0841 17.4835 19.9008 17.3002L16.0258 13.4252C15.6424 13.0419 15.4508 12.5669 15.4508 12.0002C15.4508 11.4335 15.6424 10.9585 16.0258 10.5752L19.9008 6.70019C20.0841 6.51686 20.3174 6.42519 20.6008 6.42519C20.8841 6.42519 21.1174 6.51686 21.3008 6.70019C21.4841 6.88353 21.5758 7.11686 21.5758 7.40019C21.5758 7.68353 21.4841 7.91686 21.3008 8.10019L17.4008 12.0002ZM6.60078 12.0002L2.70078 8.10019C2.51745 7.91686 2.42578 7.68353 2.42578 7.4002C2.42578 7.11686 2.51745 6.88353 2.70078 6.7002C2.88411 6.51686 3.11745 6.42519 3.40078 6.42519C3.68411 6.42519 3.91745 6.51686 4.10078 6.7002L7.97578 10.5752C8.35911 10.9585 8.55078 11.4335 8.55078 12.0002C8.55078 12.5669 8.35911 13.0419 7.97578 13.4252L4.10078 17.3002C3.91745 17.4835 3.68411 17.5752 3.40078 17.5752C3.11745 17.5752 2.88411 17.4835 2.70078 17.3002C2.51745 17.1169 2.42578 16.8835 2.42578 16.6002C2.42578 16.3169 2.51745 16.0835 2.70078 15.9002L6.60078 12.0002Z" fill="#323232"/>
</g>
</svg>
