<svg width="24" height="24" viewBox="0 0 24 24" fill="none" xmlns="http://www.w3.org/2000/svg">
<mask id="mask0_627_9192" style="mask-type:alpha" maskUnits="userSpaceOnUse" x="0" y="0" width="24" height="24">
<rect width="24" height="24" fill="#D9D9D9"/>
</mask>
<g mask="url(#mask0_627_9192)">
<path d="M12 16C10.85 16 9.775 16.175 8.775 16.525C7.775 16.875 6.85 17.3667 6 18V20H18V18C17.15 17.3667 16.225 16.875 15.225 16.525C14.225 16.175 13.15 16 12 16ZM6 22C5.45 22 4.97917 21.8042 4.5875 21.4125C4.19583 21.0208 4 20.55 4 20V4C4 3.45 4.19583 2.97917 4.5875 2.5875C4.97917 2.19583 5.45 2 6 2H18C18.55 2 19.0208 2.19583 19.4125 2.5875C19.8042 2.97917 20 3.45 20 4V20C20 20.55 19.8042 21.0208 19.4125 21.4125C19.0208 21.8042 18.55 22 18 22H6ZM12 14C12.9667 14 13.7917 13.6583 14.475 12.975C15.1583 12.2917 15.5 11.4667 15.5 10.5C15.5 9.53333 15.1583 8.70833 14.475 8.025C13.7917 7.34167 12.9667 7 12 7C11.0333 7 10.2083 7.34167 9.525 8.025C8.84167 8.70833 8.5 9.53333 8.5 10.5C8.5 11.4667 8.84167 12.2917 9.525 12.975C10.2083 13.6583 11.0333 14 12 14Z" fill="#545454"/>
</g>
</svg>
