<svg width="24" height="24" viewBox="0 0 24 24" fill="none" xmlns="http://www.w3.org/2000/svg">
<mask id="mask0_627_9195" style="mask-type:alpha" maskUnits="userSpaceOnUse" x="0" y="0" width="24" height="24">
<rect width="24" height="24" fill="#D9D9D9"/>
</mask>
<g mask="url(#mask0_627_9195)">
<path d="M14.5 17.999C13.8 17.999 13.2083 17.7574 12.725 17.274C12.2417 16.7907 12 16.199 12 15.499C12 14.799 12.2417 14.2074 12.725 13.724C13.2083 13.2407 13.8 12.999 14.5 12.999C15.2 12.999 15.7917 13.2407 16.275 13.724C16.7583 14.2074 17 14.799 17 15.499C17 16.199 16.7583 16.7907 16.275 17.274C15.7917 17.7574 15.2 17.999 14.5 17.999ZM5 21.999C4.45 21.999 3.97917 21.8032 3.5875 21.4115C3.19583 21.0199 3 20.549 3 19.999V5.99902C3 5.44902 3.19583 4.97819 3.5875 4.58652C3.97917 4.19486 4.45 3.99902 5 3.99902H6V1.99902H8V3.99902H16V1.99902H18V3.99902H19C19.55 3.99902 20.0208 4.19486 20.4125 4.58652C20.8042 4.97819 21 5.44902 21 5.99902V19.999C21 20.549 20.8042 21.0199 20.4125 21.4115C20.0208 21.8032 19.55 21.999 19 21.999H5ZM5 19.999H19V9.99902H5V19.999ZM5 7.99902H19V5.99902H5V7.99902Z" fill="#545454"/>
</g>
</svg>
