<svg width="24" height="24" viewBox="0 0 24 24" fill="none" xmlns="http://www.w3.org/2000/svg">
<mask id="mask0_597_23918" style="mask-type:alpha" maskUnits="userSpaceOnUse" x="0" y="0" width="24" height="24">
<rect width="24" height="24" fill="#D9D9D9"/>
</mask>
<g mask="url(#mask0_597_23918)">
<path d="M12 21C11.45 21 10.9792 20.8042 10.5875 20.4125C10.1958 20.0208 10 19.55 10 19C10 18.45 10.1958 17.9792 10.5875 17.5875C10.9792 17.1958 11.45 17 12 17C12.55 17 13.0208 17.1958 13.4125 17.5875C13.8042 17.9792 14 18.45 14 19C14 19.55 13.8042 20.0208 13.4125 20.4125C13.0208 20.8042 12.55 21 12 21ZM12 15C11.45 15 10.9792 14.8042 10.5875 14.4125C10.1958 14.0208 10 13.55 10 13V5C10 4.45 10.1958 3.97917 10.5875 3.5875C10.9792 3.19583 11.45 3 12 3C12.55 3 13.0208 3.19583 13.4125 3.5875C13.8042 3.97917 14 4.45 14 5V13C14 13.55 13.8042 14.0208 13.4125 14.4125C13.0208 14.8042 12.55 15 12 15Z" fill="#F4F4F4"/>
</g>
</svg>
