<svg width="24" height="24" viewBox="0 0 24 24" fill="none" xmlns="http://www.w3.org/2000/svg">
<g id="expand_all">
<mask id="mask0_779_1648" style="mask-type:alpha" maskUnits="userSpaceOnUse" x="0" y="0" width="24" height="24">
<rect id="Bounding box" y="24" width="24" height="24" transform="rotate(-90 0 24)" fill="#D9D9D9"/>
</mask>
<g mask="url(#mask0_779_1648)">
<path id="expand_all_2" d="M19.1496 11.9999L15.2746 8.12489C15.0746 7.92489 14.9746 7.69156 14.9746 7.42489C14.9746 7.15822 15.0746 6.92489 15.2746 6.72489C15.4746 6.52489 15.7121 6.42489 15.9871 6.42489C16.2621 6.42489 16.4996 6.52489 16.6996 6.72489L20.5746 10.5749C20.9579 10.9582 21.1496 11.4332 21.1496 11.9999C21.1496 12.5666 20.9579 13.0416 20.5746 13.4249L16.6996 17.2999C16.4996 17.4999 16.2621 17.5957 15.9871 17.5874C15.7121 17.5791 15.4746 17.4749 15.2746 17.2749C15.0746 17.0749 14.9746 16.8374 14.9746 16.5624C14.9746 16.2874 15.0746 16.0499 15.2746 15.8499L19.1496 11.9999ZM4.84961 11.9999L8.69961 15.8499C8.89961 16.0499 8.99544 16.2832 8.98711 16.5499C8.97878 16.8166 8.88294 17.0499 8.69961 17.2499C8.49961 17.4499 8.26211 17.5541 7.98711 17.5624C7.71211 17.5707 7.47461 17.4749 7.27461 17.2749L3.42461 13.4249C3.04128 13.0416 2.84961 12.5666 2.84961 11.9999C2.84961 11.4332 3.04128 10.9582 3.42461 10.5749L7.27461 6.72489C7.47461 6.52489 7.71211 6.42906 7.98711 6.43739C8.26211 6.44572 8.49961 6.54989 8.69961 6.74989C8.88294 6.94989 8.97878 7.18322 8.98711 7.44989C8.99544 7.71656 8.89961 7.94989 8.69961 8.14989L4.84961 11.9999Z" fill="#323232"/>
</g>
</g>
</svg>
