<svg width="24" height="24" viewBox="0 0 24 24" fill="none" xmlns="http://www.w3.org/2000/svg">
<mask id="mask0_640_10180" style="mask-type:alpha" maskUnits="userSpaceOnUse" x="0" y="0" width="24" height="24">
<rect width="24" height="24" fill="#D9D9D9"/>
</mask>
<g mask="url(#mask0_640_10180)">
<path d="M6 18L3.7 20.3C3.38333 20.6167 3.02083 20.6875 2.6125 20.5125C2.20417 20.3375 2 20.025 2 19.575V4C2 3.45 2.19583 2.97917 2.5875 2.5875C2.97917 2.19583 3.45 2 4 2H20C20.55 2 21.0208 2.19583 21.4125 2.5875C21.8042 2.97917 22 3.45 22 4V16C22 16.55 21.8042 17.0208 21.4125 17.4125C21.0208 17.8042 20.55 18 20 18H6ZM12 15C12.2833 15 12.5208 14.9042 12.7125 14.7125C12.9042 14.5208 13 14.2833 13 14C13 13.7167 12.9042 13.4792 12.7125 13.2875C12.5208 13.0958 12.2833 13 12 13C11.7167 13 11.4792 13.0958 11.2875 13.2875C11.0958 13.4792 11 13.7167 11 14C11 14.2833 11.0958 14.5208 11.2875 14.7125C11.4792 14.9042 11.7167 15 12 15ZM12 11C12.2833 11 12.5208 10.9042 12.7125 10.7125C12.9042 10.5208 13 10.2833 13 10V6C13 5.71667 12.9042 5.47917 12.7125 5.2875C12.5208 5.09583 12.2833 5 12 5C11.7167 5 11.4792 5.09583 11.2875 5.2875C11.0958 5.47917 11 5.71667 11 6V10C11 10.2833 11.0958 10.5208 11.2875 10.7125C11.4792 10.9042 11.7167 11 12 11Z" fill="#CDCDCD"/>
</g>
</svg>
