<svg width="18" height="18" viewBox="0 0 18 18" fill="none" xmlns="http://www.w3.org/2000/svg">
<path d="M9 18C6.9 18 5.04167 17.3625 3.425 16.0875C1.80833 14.8125 0.758333 13.1833 0.275 11.2C0.208333 10.95 0.258333 10.7208 0.425 10.5125C0.591667 10.3042 0.816667 10.1833 1.1 10.15C1.36667 10.1167 1.60833 10.1667 1.825 10.3C2.04167 10.4333 2.19167 10.6333 2.275 10.9C2.675 12.4 3.5 13.625 4.75 14.575C6 15.525 7.41667 16 9 16C10.95 16 12.6042 15.3208 13.9625 13.9625C15.3208 12.6042 16 10.95 16 9C16 7.05 15.3208 5.39583 13.9625 4.0375C12.6042 2.67917 10.95 2 9 2C7.85 2 6.775 2.26667 5.775 2.8C4.775 3.33333 3.93333 4.06667 3.25 5H5C5.28333 5 5.52083 5.09583 5.7125 5.2875C5.90417 5.47917 6 5.71667 6 6C6 6.28333 5.90417 6.52083 5.7125 6.7125C5.52083 6.90417 5.28333 7 5 7H1C0.716667 7 0.479167 6.90417 0.2875 6.7125C0.0958333 6.52083 0 6.28333 0 6V2C0 1.71667 0.0958333 1.47917 0.2875 1.2875C0.479167 1.09583 0.716667 1 1 1C1.28333 1 1.52083 1.09583 1.7125 1.2875C1.90417 1.47917 2 1.71667 2 2V3.35C2.85 2.28333 3.8875 1.45833 5.1125 0.875C6.3375 0.291667 7.63333 0 9 0C10.25 0 11.4208 0.2375 12.5125 0.7125C13.6042 1.1875 14.5542 1.82917 15.3625 2.6375C16.1708 3.44583 16.8125 4.39583 17.2875 5.4875C17.7625 6.57917 18 7.75 18 9C18 10.25 17.7625 11.4208 17.2875 12.5125C16.8125 13.6042 16.1708 14.5542 15.3625 15.3625C14.5542 16.1708 13.6042 16.8125 12.5125 17.2875C11.4208 17.7625 10.25 18 9 18ZM10 8.6L12.5 11.1C12.6833 11.2833 12.775 11.5167 12.775 11.8C12.775 12.0833 12.6833 12.3167 12.5 12.5C12.3167 12.6833 12.0833 12.775 11.8 12.775C11.5167 12.775 11.2833 12.6833 11.1 12.5L8.3 9.7C8.2 9.6 8.125 9.4875 8.075 9.3625C8.025 9.2375 8 9.10833 8 8.975V5C8 4.71667 8.09583 4.47917 8.2875 4.2875C8.47917 4.09583 8.71667 4 9 4C9.28333 4 9.52083 4.09583 9.7125 4.2875C9.90417 4.47917 10 4.71667 10 5V8.6Z" fill="#545454"/>
</svg>
