<svg width="80" height="80" viewBox="0 0 80 80" fill="none" xmlns="http://www.w3.org/2000/svg">
<g id="timer">
<mask id="mask0_105_4206" style="mask-type:alpha" maskUnits="userSpaceOnUse" x="0" y="0" width="80" height="80">
<rect id="Bounding box" width="80" height="80" fill="#D9D9D9"/>
</mask>
<g mask="url(#mask0_105_4206)">
<path id="hourglass_empty" d="M26.6668 66.6667H53.3335V56.6667C53.3335 53.0001 52.0279 49.8612 49.4168 47.2501C46.8057 44.639 43.6668 43.3334 40.0002 43.3334C36.3335 43.3334 33.1946 44.639 30.5835 47.2501C27.9724 49.8612 26.6668 53.0001 26.6668 56.6667V66.6667ZM40.0002 36.6667C43.6668 36.6667 46.8057 35.3612 49.4168 32.7501C52.0279 30.139 53.3335 27.0001 53.3335 23.3334V13.3334H26.6668V23.3334C26.6668 27.0001 27.9724 30.139 30.5835 32.7501C33.1946 35.3612 36.3335 36.6667 40.0002 36.6667ZM16.6668 73.3334C15.7224 73.3334 14.9307 73.014 14.2918 72.3751C13.6529 71.7362 13.3335 70.9445 13.3335 70.0001C13.3335 69.0556 13.6529 68.264 14.2918 67.6251C14.9307 66.9862 15.7224 66.6667 16.6668 66.6667H20.0002V56.6667C20.0002 53.2779 20.7918 50.0973 22.3752 47.1251C23.9585 44.1529 26.1668 41.7779 29.0002 40.0001C26.1668 38.2223 23.9585 35.8473 22.3752 32.8751C20.7918 29.9029 20.0002 26.7223 20.0002 23.3334V13.3334H16.6668C15.7224 13.3334 14.9307 13.014 14.2918 12.3751C13.6529 11.7362 13.3335 10.9445 13.3335 10.0001C13.3335 9.05564 13.6529 8.26397 14.2918 7.62508C14.9307 6.98619 15.7224 6.66675 16.6668 6.66675H63.3335C64.2779 6.66675 65.0696 6.98619 65.7085 7.62508C66.3474 8.26397 66.6668 9.05564 66.6668 10.0001C66.6668 10.9445 66.3474 11.7362 65.7085 12.3751C65.0696 13.014 64.2779 13.3334 63.3335 13.3334H60.0002V23.3334C60.0002 26.7223 59.2085 29.9029 57.6252 32.8751C56.0418 35.8473 53.8335 38.2223 51.0002 40.0001C53.8335 41.7779 56.0418 44.1529 57.6252 47.1251C59.2085 50.0973 60.0002 53.2779 60.0002 56.6667V66.6667H63.3335C64.2779 66.6667 65.0696 66.9862 65.7085 67.6251C66.3474 68.264 66.6668 69.0556 66.6668 70.0001C66.6668 70.9445 66.3474 71.7362 65.7085 72.3751C65.0696 73.014 64.2779 73.3334 63.3335 73.3334H16.6668Z" fill="#DFDFDF"/>
</g>
</g>
</svg>
