<svg width="32" height="32" viewBox="0 0 32 32" fill="none" xmlns="http://www.w3.org/2000/svg">
<mask id="mask0_4494_30718" style="mask-type:alpha" maskUnits="userSpaceOnUse" x="0" y="0" width="32" height="32">
<rect width="32" height="32" fill="#D9D9D9"/>
</mask>
<g mask="url(#mask0_4494_30718)">
<mask id="mask1_4494_30718" style="mask-type:alpha" maskUnits="userSpaceOnUse" x="0" y="0" width="32" height="32">
<rect width="32" height="32" fill="#D9D9D9"/>
</mask>
<g mask="url(#mask1_4494_30718)">
<path d="M6.2222 28C5.6222 28 5.10183 27.7796 4.6611 27.3389C4.22037 26.8982 4 26.3778 4 25.7778V6.2222C4 5.6222 4.22037 5.10183 4.6611 4.6611C5.10183 4.22037 5.6222 4 6.2222 4H25.7778C26.3778 4 26.8982 4.22037 27.3389 4.6611C27.7796 5.10183 28 5.6222 28 6.2222V25.7778C28 26.3778 27.7796 26.8982 27.3389 27.3389C26.8982 27.7796 26.3778 28 25.7778 28H6.2222ZM7.9111 22.7333H24.1111L19.1778 16.1556L14.9111 21.7333L11.8444 17.5778L7.9111 22.7333ZM11.3333 13.1111C11.8296 13.1111 12.25 12.9389 12.5944 12.5944C12.9389 12.25 13.1111 11.8296 13.1111 11.3333C13.1111 10.837 12.9389 10.4167 12.5944 10.0722C12.25 9.72779 11.8296 9.55557 11.3333 9.55557C10.837 9.55557 10.4167 9.72779 10.0722 10.0722C9.72779 10.4167 9.55557 10.837 9.55557 11.3333C9.55557 11.8296 9.72779 12.25 10.0722 12.5944C10.4167 12.9389 10.837 13.1111 11.3333 13.1111Z" fill="#969696"/>
</g>
</g>
</svg>
