<svg width="32" height="32" viewBox="0 0 32 32" fill="none" xmlns="http://www.w3.org/2000/svg">
<mask id="mask0_3132_19973" style="mask-type:alpha" maskUnits="userSpaceOnUse" x="0" y="0" width="32" height="32">
<rect width="32" height="32" fill="#545454"/>
</mask>
<g mask="url(#mask0_3132_19973)">
<path d="M9.3335 20C10.4446 20 11.3891 19.6111 12.1668 18.8333C12.9446 18.0556 13.3335 17.1111 13.3335 16C13.3335 14.8889 12.9446 13.9444 12.1668 13.1667C11.3891 12.3889 10.4446 12 9.3335 12C8.22239 12 7.27794 12.3889 6.50016 13.1667C5.72238 13.9444 5.3335 14.8889 5.3335 16C5.3335 17.1111 5.72238 18.0556 6.50016 18.8333C7.27794 19.6111 8.22239 20 9.3335 20ZM9.3335 24C7.11127 24 5.22239 23.2222 3.66683 21.6667C2.11127 20.1111 1.3335 18.2222 1.3335 16C1.3335 13.7778 2.11127 11.8889 3.66683 10.3333C5.22239 8.77778 7.11127 8 9.3335 8C11.1335 8 12.7057 8.51111 14.0502 9.53333C15.3946 10.5556 16.3335 11.8222 16.8668 13.3333H27.4668C27.6446 13.3333 27.8168 13.3667 27.9835 13.4333C28.1502 13.5 28.2891 13.5889 28.4002 13.7L29.7002 15C29.8335 15.1333 29.9335 15.2833 30.0002 15.45C30.0668 15.6167 30.1002 15.7889 30.1002 15.9667C30.1002 16.1444 30.0724 16.3111 30.0168 16.4667C29.9613 16.6222 29.8668 16.7667 29.7335 16.9L26.2668 20.3667C26.1335 20.5 25.9891 20.6 25.8335 20.6667C25.6779 20.7333 25.5113 20.7667 25.3335 20.7667C25.1557 20.7667 24.9891 20.7389 24.8335 20.6833C24.6779 20.6278 24.5335 20.5333 24.4002 20.4L22.6668 18.6667L20.9335 20.4C20.8002 20.5333 20.6557 20.6278 20.5002 20.6833C20.3446 20.7389 20.1779 20.7667 20.0002 20.7667C19.8224 20.7667 19.6557 20.7389 19.5002 20.6833C19.3446 20.6278 19.2002 20.5333 19.0668 20.4L17.3335 18.6667H16.8668C16.3113 20.2667 15.3446 21.5556 13.9668 22.5333C12.5891 23.5111 11.0446 24 9.3335 24Z" fill="#545454"/>
</g>
</svg>
