<svg width="40" height="40" viewBox="0 0 40 40" fill="none" xmlns="http://www.w3.org/2000/svg">
<mask id="mask0_145_2130" style="mask-type:alpha" maskUnits="userSpaceOnUse" x="0" y="0" width="40" height="40">
<rect width="40" height="40" fill="#D9D9D9"/>
</mask>
<g mask="url(#mask0_145_2130)">
<path d="M14.9993 13.3337H24.9993V10.0003C24.9993 8.61144 24.5132 7.43088 23.541 6.45866C22.5688 5.48644 21.3882 5.00033 19.9993 5.00033C18.6105 5.00033 17.4299 5.48644 16.4577 6.45866C15.4855 7.43088 14.9993 8.61144 14.9993 10.0003V13.3337ZM29.9993 38.3337C27.6938 38.3337 25.7285 37.5212 24.1035 35.8962C22.4785 34.2712 21.666 32.3059 21.666 30.0003C21.666 27.6948 22.4785 25.7295 24.1035 24.1045C25.7285 22.4795 27.6938 21.667 29.9993 21.667C32.3049 21.667 34.2702 22.4795 35.8952 24.1045C37.5202 25.7295 38.3327 27.6948 38.3327 30.0003C38.3327 32.3059 37.5202 34.2712 35.8952 35.8962C34.2702 37.5212 32.3049 38.3337 29.9993 38.3337ZM20.416 36.667H9.99935C9.08268 36.667 8.29796 36.3406 7.64518 35.6878C6.9924 35.035 6.66602 34.2503 6.66602 33.3337V16.667C6.66602 15.7503 6.9924 14.9656 7.64518 14.3128C8.29796 13.66 9.08268 13.3337 9.99935 13.3337H11.666V10.0003C11.666 7.69477 12.4785 5.72949 14.1035 4.10449C15.7285 2.47949 17.6938 1.66699 19.9993 1.66699C22.3049 1.66699 24.2702 2.47949 25.8952 4.10449C27.5202 5.72949 28.3327 7.69477 28.3327 10.0003V13.3337H29.9993C30.916 13.3337 31.7007 13.66 32.3535 14.3128C33.0063 14.9656 33.3327 15.7503 33.3327 16.667V18.8337C32.7771 18.6392 32.2216 18.5073 31.666 18.4378C31.1105 18.3684 30.5549 18.3337 29.9993 18.3337C26.7493 18.3337 23.9924 19.4656 21.7285 21.7295C19.4646 23.9934 18.3327 26.7503 18.3327 30.0003C18.3327 31.1948 18.5202 32.3545 18.8952 33.4795C19.2702 34.6045 19.7771 35.667 20.416 36.667ZM29.9993 30.0003C30.6938 30.0003 31.2841 29.7573 31.7702 29.2712C32.2563 28.785 32.4993 28.1948 32.4993 27.5003C32.4993 26.8059 32.2563 26.2156 31.7702 25.7295C31.2841 25.2434 30.6938 25.0003 29.9993 25.0003C29.3049 25.0003 28.7146 25.2434 28.2285 25.7295C27.7424 26.2156 27.4993 26.8059 27.4993 27.5003C27.4993 28.1948 27.7424 28.785 28.2285 29.2712C28.7146 29.7573 29.3049 30.0003 29.9993 30.0003ZM29.9993 35.0003C30.8327 35.0003 31.6105 34.8059 32.3327 34.417C33.0549 34.0281 33.6521 33.4864 34.1243 32.792C33.4855 32.4031 32.8188 32.1184 32.1243 31.9378C31.4299 31.7573 30.7216 31.667 29.9993 31.667C29.2771 31.667 28.5688 31.7573 27.8743 31.9378C27.1799 32.1184 26.5132 32.4031 25.8743 32.792C26.3466 33.4864 26.9438 34.0281 27.666 34.417C28.3882 34.8059 29.166 35.0003 29.9993 35.0003Z" fill="#1C1B1F"/>
</g>
</svg>
