<svg width="24" height="24" viewBox="0 0 24 24" fill="none" xmlns="http://www.w3.org/2000/svg">
<g id="move_item">
<mask id="mask0_154_4361" style="mask-type:alpha" maskUnits="userSpaceOnUse" x="0" y="0" width="24" height="24">
<rect id="Bounding box" width="24" height="24" fill="#D9D9D9"/>
</mask>
<g mask="url(#mask0_154_4361)">
<path id="move_item_2" d="M20.15 13H9C8.71667 13 8.47917 12.9042 8.2875 12.7125C8.09583 12.5208 8 12.2833 8 12C8 11.7167 8.09583 11.4792 8.2875 11.2875C8.47917 11.0958 8.71667 11 9 11H20.15L19.3 10.15C19.1 9.95 19.0042 9.71667 19.0125 9.45C19.0208 9.18333 19.1167 8.95 19.3 8.75C19.5 8.55 19.7375 8.44583 20.0125 8.4375C20.2875 8.42917 20.525 8.525 20.725 8.725L23.3 11.3C23.5 11.5 23.6 11.7333 23.6 12C23.6 12.2667 23.5 12.5 23.3 12.7L20.725 15.275C20.525 15.475 20.2875 15.5708 20.0125 15.5625C19.7375 15.5542 19.5 15.45 19.3 15.25C19.1167 15.05 19.0208 14.8167 19.0125 14.55C19.0042 14.2833 19.1 14.05 19.3 13.85L20.15 13ZM15 8V5H5V19H15V16C15 15.7167 15.0958 15.4792 15.2875 15.2875C15.4792 15.0958 15.7167 15 16 15C16.2833 15 16.5208 15.0958 16.7125 15.2875C16.9042 15.4792 17 15.7167 17 16V19C17 19.55 16.8042 20.0208 16.4125 20.4125C16.0208 20.8042 15.55 21 15 21H5C4.45 21 3.97917 20.8042 3.5875 20.4125C3.19583 20.0208 3 19.55 3 19V5C3 4.45 3.19583 3.97917 3.5875 3.5875C3.97917 3.19583 4.45 3 5 3H15C15.55 3 16.0208 3.19583 16.4125 3.5875C16.8042 3.97917 17 4.45 17 5V8C17 8.28333 16.9042 8.52083 16.7125 8.7125C16.5208 8.90417 16.2833 9 16 9C15.7167 9 15.4792 8.90417 15.2875 8.7125C15.0958 8.52083 15 8.28333 15 8Z" fill="#545454"/>
</g>
</g>
</svg>
