<svg width="24" height="24" viewBox="0 0 24 24" fill="none" xmlns="http://www.w3.org/2000/svg">
<mask id="mask0_418_7710" style="mask-type:alpha" maskUnits="userSpaceOnUse" x="0" y="0" width="24" height="24">
<rect width="24" height="24" fill="#D9D9D9"/>
</mask>
<g mask="url(#mask0_418_7710)">
<path d="M3 6C2.71667 6 2.47917 5.90417 2.2875 5.7125C2.09583 5.52083 2 5.28333 2 5V2C2 1.71667 2.09583 1.47917 2.2875 1.2875C2.47917 1.09583 2.71667 1 3 1H6C6.28333 1 6.52083 1.09583 6.7125 1.2875C6.90417 1.47917 7 1.71667 7 2C7 2.28333 6.90417 2.52083 6.7125 2.7125C6.52083 2.90417 6.28333 3 6 3H4V5C4 5.28333 3.90417 5.52083 3.7125 5.7125C3.52083 5.90417 3.28333 6 3 6ZM21 6C20.7167 6 20.4792 5.90417 20.2875 5.7125C20.0958 5.52083 20 5.28333 20 5V3H18C17.7167 3 17.4792 2.90417 17.2875 2.7125C17.0958 2.52083 17 2.28333 17 2C17 1.71667 17.0958 1.47917 17.2875 1.2875C17.4792 1.09583 17.7167 1 18 1H21C21.2833 1 21.5208 1.09583 21.7125 1.2875C21.9042 1.47917 22 1.71667 22 2V5C22 5.28333 21.9042 5.52083 21.7125 5.7125C21.5208 5.90417 21.2833 6 21 6ZM3 23C2.71667 23 2.47917 22.9042 2.2875 22.7125C2.09583 22.5208 2 22.2833 2 22V19C2 18.7167 2.09583 18.4792 2.2875 18.2875C2.47917 18.0958 2.71667 18 3 18C3.28333 18 3.52083 18.0958 3.7125 18.2875C3.90417 18.4792 4 18.7167 4 19V21H6C6.28333 21 6.52083 21.0958 6.7125 21.2875C6.90417 21.4792 7 21.7167 7 22C7 22.2833 6.90417 22.5208 6.7125 22.7125C6.52083 22.9042 6.28333 23 6 23H3ZM18 23C17.7167 23 17.4792 22.9042 17.2875 22.7125C17.0958 22.5208 17 22.2833 17 22C17 21.7167 17.0958 21.4792 17.2875 21.2875C17.4792 21.0958 17.7167 21 18 21H20V19C20 18.7167 20.0958 18.4792 20.2875 18.2875C20.4792 18.0958 20.7167 18 21 18C21.2833 18 21.5208 18.0958 21.7125 18.2875C21.9042 18.4792 22 18.7167 22 19V22C22 22.2833 21.9042 22.5208 21.7125 22.7125C21.5208 22.9042 21.2833 23 21 23H18ZM7 20C6.45 20 5.97917 19.8042 5.5875 19.4125C5.19583 19.0208 5 18.55 5 18V6C5 5.45 5.19583 4.97917 5.5875 4.5875C5.97917 4.19583 6.45 4 7 4H17C17.55 4 18.0208 4.19583 18.4125 4.5875C18.8042 4.97917 19 5.45 19 6V18C19 18.55 18.8042 19.0208 18.4125 19.4125C18.0208 19.8042 17.55 20 17 20H7ZM10 10H14C14.2833 10 14.5208 9.90417 14.7125 9.7125C14.9042 9.52083 15 9.28333 15 9C15 8.71667 14.9042 8.47917 14.7125 8.2875C14.5208 8.09583 14.2833 8 14 8H10C9.71667 8 9.47917 8.09583 9.2875 8.2875C9.09583 8.47917 9 8.71667 9 9C9 9.28333 9.09583 9.52083 9.2875 9.7125C9.47917 9.90417 9.71667 10 10 10ZM10 13H14C14.2833 13 14.5208 12.9042 14.7125 12.7125C14.9042 12.5208 15 12.2833 15 12C15 11.7167 14.9042 11.4792 14.7125 11.2875C14.5208 11.0958 14.2833 11 14 11H10C9.71667 11 9.47917 11.0958 9.2875 11.2875C9.09583 11.4792 9 11.7167 9 12C9 12.2833 9.09583 12.5208 9.2875 12.7125C9.47917 12.9042 9.71667 13 10 13ZM10 16H14C14.2833 16 14.5208 15.9042 14.7125 15.7125C14.9042 15.5208 15 15.2833 15 15C15 14.7167 14.9042 14.4792 14.7125 14.2875C14.5208 14.0958 14.2833 14 14 14H10C9.71667 14 9.47917 14.0958 9.2875 14.2875C9.09583 14.4792 9 14.7167 9 15C9 15.2833 9.09583 15.5208 9.2875 15.7125C9.47917 15.9042 9.71667 16 10 16Z" fill="#545454"/>
</g>
</svg>
