<svg width="24" height="24" viewBox="0 0 24 24" fill="none" xmlns="http://www.w3.org/2000/svg">
<mask id="mask0_627_9483" style="mask-type:alpha" maskUnits="userSpaceOnUse" x="0" y="0" width="24" height="24">
<rect width="24" height="24" fill="#D9D9D9"/>
</mask>
<g mask="url(#mask0_627_9483)">
<path d="M20 11C19.7167 11 19.4792 10.9042 19.2875 10.7125C19.0958 10.5208 19 10.2833 19 10C19 9.71667 19.0958 9.47917 19.2875 9.2875C19.4792 9.09583 19.7167 9 20 9C20.2833 9 20.5208 9.09583 20.7125 9.2875C20.9042 9.47917 21 9.71667 21 10C21 10.2833 20.9042 10.5208 20.7125 10.7125C20.5208 10.9042 20.2833 11 20 11ZM20 8C19.7167 8 19.4792 7.90417 19.2875 7.7125C19.0958 7.52083 19 7.28333 19 7V4C19 3.71667 19.0958 3.47917 19.2875 3.2875C19.4792 3.09583 19.7167 3 20 3C20.2833 3 20.5208 3.09583 20.7125 3.2875C20.9042 3.47917 21 3.71667 21 4V7C21 7.28333 20.9042 7.52083 20.7125 7.7125C20.5208 7.90417 20.2833 8 20 8ZM9 12C7.9 12 6.95833 11.6083 6.175 10.825C5.39167 10.0417 5 9.1 5 8C5 6.9 5.39167 5.95833 6.175 5.175C6.95833 4.39167 7.9 4 9 4C10.1 4 11.0417 4.39167 11.825 5.175C12.6083 5.95833 13 6.9 13 8C13 9.1 12.6083 10.0417 11.825 10.825C11.0417 11.6083 10.1 12 9 12ZM1 18V17.2C1 16.6333 1.14583 16.1125 1.4375 15.6375C1.72917 15.1625 2.11667 14.8 2.6 14.55C3.63333 14.0333 4.68333 13.6458 5.75 13.3875C6.81667 13.1292 7.9 13 9 13C10.1 13 11.1833 13.1292 12.25 13.3875C13.3167 13.6458 14.3667 14.0333 15.4 14.55C15.8833 14.8 16.2708 15.1625 16.5625 15.6375C16.8542 16.1125 17 16.6333 17 17.2V18C17 18.55 16.8042 19.0208 16.4125 19.4125C16.0208 19.8042 15.55 20 15 20H3C2.45 20 1.97917 19.8042 1.5875 19.4125C1.19583 19.0208 1 18.55 1 18Z" fill="#545454"/>
</g>
</svg>
