<svg width="32" height="32" viewBox="0 0 32 32" fill="none" xmlns="http://www.w3.org/2000/svg">
<mask id="mask0_649_13567" style="mask-type:alpha" maskUnits="userSpaceOnUse" x="0" y="0" width="32" height="32">
<rect width="32" height="32" fill="#D9D9D9"/>
</mask>
<g mask="url(#mask0_649_13567)">
<path d="M15.9997 21.333C17.6664 21.333 19.0831 20.7497 20.2497 19.583C21.4164 18.4163 21.9997 16.9997 21.9997 15.333C21.9997 13.6663 21.4164 12.2497 20.2497 11.083C19.0831 9.91634 17.6664 9.33301 15.9997 9.33301C14.3331 9.33301 12.9164 9.91634 11.7497 11.083C10.5831 12.2497 9.99974 13.6663 9.99974 15.333C9.99974 16.9997 10.5831 18.4163 11.7497 19.583C12.9164 20.7497 14.3331 21.333 15.9997 21.333ZM15.9997 18.933C14.9997 18.933 14.1497 18.583 13.4497 17.883C12.7497 17.183 12.3997 16.333 12.3997 15.333C12.3997 14.333 12.7497 13.483 13.4497 12.783C14.1497 12.083 14.9997 11.733 15.9997 11.733C16.9997 11.733 17.8497 12.083 18.5497 12.783C19.2497 13.483 19.5997 14.333 19.5997 15.333C19.5997 16.333 19.2497 17.183 18.5497 17.883C17.8497 18.583 16.9997 18.933 15.9997 18.933ZM15.9997 25.333C12.9109 25.333 10.0886 24.5163 7.53307 22.883C4.97752 21.2497 3.04418 19.0441 1.73307 16.2663C1.66641 16.1552 1.62196 16.0163 1.59974 15.8497C1.57752 15.683 1.56641 15.5108 1.56641 15.333C1.56641 15.1552 1.57752 14.983 1.59974 14.8163C1.62196 14.6497 1.66641 14.5108 1.73307 14.3997C3.04418 11.6219 4.97752 9.41634 7.53307 7.78301C10.0886 6.14967 12.9109 5.33301 15.9997 5.33301C19.0886 5.33301 21.9109 6.14967 24.4664 7.78301C27.022 9.41634 28.9553 11.6219 30.2664 14.3997C30.3331 14.5108 30.3775 14.6497 30.3997 14.8163C30.422 14.983 30.4331 15.1552 30.4331 15.333C30.4331 15.5108 30.422 15.683 30.3997 15.8497C30.3775 16.0163 30.3331 16.1552 30.2664 16.2663C28.9553 19.0441 27.022 21.2497 24.4664 22.883C21.9109 24.5163 19.0886 25.333 15.9997 25.333Z" fill="#545454"/>
</g>
</svg>
