<svg xmlns="http://www.w3.org/2000/svg" width="16" height="16" fill="none" viewBox="0 0 16 16">
  <mask id="a" width="16" height="16" x="0" y="0" maskUnits="userSpaceOnUse" style="mask-type:alpha">
    <path fill="#D9D9D9" d="M0 0h16v16H0z"/>
  </mask>
  <g mask="url(#a)">
    <path fill="#545454" d="M13.2 15.067 10.4 12.3a8 8 0 0 1-1.175.275A7.994 7.994 0 0 1 8 12.668c-1.677 0-3.172-.464-4.483-1.392a7.935 7.935 0 0 1-2.85-3.608 7.902 7.902 0 0 1 .883-1.641 7.676 7.676 0 0 1 1.217-1.359L.934 2.801l.933-.934 12.267 12.267-.934.933Zm-5.2-4.4c.123 0 .236-.005.342-.017a2.17 2.17 0 0 0 .342-.066l-3.6-3.6a2.17 2.17 0 0 0-.067.342A3.267 3.267 0 0 0 5 7.667c0 .834.292 1.542.875 2.125A2.893 2.893 0 0 0 8 10.667Zm4.867.3-2.117-2.1a3.64 3.64 0 0 0 .184-.575c.044-.194.066-.403.066-.625 0-.833-.291-1.541-.875-2.125A2.893 2.893 0 0 0 8 4.667a2.8 2.8 0 0 0-.625.067 2.829 2.829 0 0 0-.575.2l-1.7-1.7A7.388 7.388 0 0 1 8 2.667c1.678 0 3.172.464 4.484 1.392a7.935 7.935 0 0 1 2.85 3.608 7.798 7.798 0 0 1-1.009 1.825 7.337 7.337 0 0 1-1.458 1.475ZM9.784 7.901l-2-2a1.53 1.53 0 0 1 .858.075c.261.105.486.258.675.458.189.2.325.43.408.692.084.26.103.519.059.775Z"/>
  </g>
</svg>
